# xmcd
#
# Track frame offsets:
#  183
#  12548
#  22745
#  36305
#  50203
#  60840
#  73940
#  85628
#  94430
#  106260
#  121505
#  135038
#  147190
#  154815
#  164670
#  177378
#  188690
#  199445
#  210420
#  221068
#  234843
#  246530
#  259698
#  271943
#  283488
#
# Disc length: 3920 seconds
#
# Revision: 5
# Processed by: cddbd v1.5.2PL0 Copyright (c) Steve Scherf et al.
# Submitted via: AltoMP3_Maker 3.0
#
DISCID=6e0f4e19
DTITLE=Various Artist - 25 Country Classics - Volume 1
DYEAR=1991
DGENRE=Country
TTITLE0=Reuben James
TTITLE1=I Believe
TTITLE2=You`ll Always Have Someone
TTITLE3=Wasted Days and Wasted Nights
TTITLE4=Burning Memories
TTITLE5=Daddy
TTITLE6=Your Tender Years
TTITLE7=Come On In
TTITLE8=Take These Chains from My Heart
TTITLE9=Slippin' Away
TTITLE10=Shine On Ruby Mountain
TTITLE11=Ol' Blue
TTITLE12=Ragged but Right
TTITLE13=Sticks and Stones
TTITLE14=High Noon
TTITLE15=The Last Letter
TTITLE16=Wild Side of Life
TTITLE17=Should I Go Home
TTITLE18=Dream Baby
TTITLE19=Crazy Love
TTITLE20=Cry Not For Me
TTITLE21=Ruby Don't Take your Love to Town
TTITLE22=Luckinback Texas
TTITLE23=Wishful Thinking
TTITLE24=Money
EXTD=
EXTT0=
EXTT1=
EXTT2=
EXTT3=
EXTT4=
EXTT5=
EXTT6=
EXTT7=
EXTT8=
EXTT9=
EXTT10=
EXTT11=
EXTT12=
EXTT13=
EXTT14=
EXTT15=
EXTT16=
EXTT17=
EXTT18=
EXTT19=
EXTT20=
EXTT21=
EXTT22=
EXTT23=
EXTT24=
PLAYORDER=
